<svg xmlns="http://www.w3.org/2000/svg" width="288" height="288" enable-background="new 0 0 480 480" viewBox="0 0 480 480"><path fill="#585f76" d="M413.648,74.336L341.664,2.352C340.216,0.896,338.216,0,336,0H104C81.944,0,64,17.944,64,40v344c0,22.056,17.944,40,40,40			h88v56h16v-56h120c4.416,0,8-3.576,8-8v-40c0-14.88,10.216-27.432,24-30.984V416v64h16v-56c22.056,0,40-17.944,40-40V80
			C416,77.784,415.104,75.784,413.648,74.336z M344,27.312L388.688,72H344V27.312z M400,384c0,13.232-10.768,24-24,24v-72
			c0-4.424-3.584-8-8-8c-26.472,0-48,21.528-48,48v32H104c-13.232,0-24-10.768-24-24V40c0-13.232,10.768-24,24-24h224v64
			c0,4.424,3.584,8,8,8h64V384z" class="color000 svgShape color4e666c"/><path fill="#585f76" d="M224,48H112c-4.416,0-8,3.576-8,8v112c0,4.424,3.584,8,8,8h32h48h32c4.416,0,8-3.576,8-8V56C232,51.576,228.416,48,224,48
			z M184,160h-32v-16c0-8.824,7.176-16,16-16c8.824,0,16,7.176,16,16V160z M160,104c0-4.416,3.592-8,8-8s8,3.584,8,8s-3.592,8-8,8
			S160,108.416,160,104z M216,160h-16v-16c0-10.488-5.136-19.72-12.952-25.56c3.064-4.032,4.952-9,4.952-14.44
			c0-13.232-10.768-24-24-24s-24,10.768-24,24c0,5.44,1.888,10.408,4.952,14.44C141.136,124.28,136,133.512,136,144v16h-16V64h96
			V160z" class="color000 svgShape color4e666c"/><rect width="40" height="16" x="248" y="72" fill="#585f76" class="color000 svgShape color4e666c"/><rect width="48" height="16" x="248" y="104" fill="#585f76" class="color000 svgShape color4e666c"/><rect width="40" height="16" x="312" y="104" fill="#585f76" class="color000 svgShape color4e666c"/><rect width="104" height="16" x="248" y="136" fill="#585f76" class="color000 svgShape color4e666c"/><rect width="64" height="16" x="144" y="200" fill="#585f76" class="color000 svgShape color4e666c"/><rect width="48" height="16" x="224" y="200" fill="#585f76" class="color000 svgShape color4e666c"/><rect width="80" height="16" x="288" y="200" fill="#585f76" class="color000 svgShape color4e666c"/><rect width="64" height="16" x="112" y="232" fill="#585f76" class="color000 svgShape color4e666c"/><rect width="128" height="16" x="192" y="232" fill="#585f76" class="color000 svgShape color4e666c"/><rect width="32" height="16" x="336" y="232" fill="#585f76" class="color000 svgShape color4e666c"/><rect width="32" height="16" x="112" y="264" fill="#585f76" class="color000 svgShape color4e666c"/><rect width="96" height="16" x="160" y="264" fill="#585f76" class="color000 svgShape color4e666c"/><rect width="96" height="16" x="272" y="264" fill="#585f76" class="color000 svgShape color4e666c"/><rect width="32" height="16" x="112" y="296" fill="#585f76" class="color000 svgShape color4e666c"/><rect width="96" height="16" x="160" y="296" fill="#585f76" class="color000 svgShape color4e666c"/><rect width="96" height="16" x="272" y="296" fill="#585f76" class="color000 svgShape color4e666c"/><rect width="72" height="16" x="112" y="328" fill="#585f76" class="color000 svgShape color4e666c"/><rect width="112" height="16" x="200" y="328" fill="#585f76" class="color000 svgShape color4e666c"/><rect width="32" height="16" x="112" y="360" fill="#585f76" class="color000 svgShape color4e666c"/><rect width="136" height="16" x="160" y="360" fill="#585f76" class="color000 svgShape color4e666c"/></svg>